<svg width="160" height="49" viewBox="0 0 160 49" fill="none" xmlns="http://www.w3.org/2000/svg">
<path d="M37 33.8582V14H38.716L52.3037 31.2482H51.4035V14H53.4571V33.8582H51.7411L38.1815 16.6099H39.0818V33.8582H37ZM65.7359 34C64.1983 34 62.8479 33.6785 61.6849 33.0355C60.5222 32.3735 59.6128 31.4752 58.9561 30.3404C58.2998 29.1867 57.9715 27.8723 57.9715 26.3972C57.9715 24.922 58.2809 23.617 58.8998 22.4823C59.5376 21.3475 60.4005 20.4586 61.488 19.8156C62.5948 19.1537 63.8326 18.8227 65.2014 18.8227C66.5895 18.8227 67.8176 19.1442 68.8866 19.7872C69.9745 20.4113 70.8277 21.3002 71.4466 22.4539C72.0655 23.5887 72.375 24.9031 72.375 26.3972C72.375 26.4917 72.3657 26.5957 72.3469 26.7092C72.3469 26.8038 72.3469 26.9078 72.3469 27.0213H59.4906V25.5177H71.2779L70.4902 26.1135C70.4902 25.0355 70.2559 24.0804 69.7869 23.2482C69.3368 22.3972 68.7179 21.7352 67.9302 21.2624C67.1425 20.7896 66.233 20.5532 65.2014 20.5532C64.1886 20.5532 63.2792 20.7896 62.4726 21.2624C61.6664 21.7352 61.0379 22.3972 60.5878 23.2482C60.1376 24.0993 59.9126 25.0733 59.9126 26.1702V26.4823C59.9126 27.617 60.1565 28.6194 60.644 29.4894C61.1504 30.3404 61.8444 31.0118 62.7258 31.5035C63.626 31.9764 64.6484 32.2128 65.7921 32.2128C66.6924 32.2128 67.5271 32.052 68.2959 31.7305C69.0836 31.409 69.7587 30.9172 70.3214 30.2553L71.4466 31.5603C70.7904 32.3546 69.9653 32.9598 68.971 33.3759C67.9961 33.792 66.9174 34 65.7359 34ZM82.4607 34C81.0356 34 79.7508 33.6785 78.6066 33.0355C77.4813 32.3735 76.5907 31.4752 75.9341 30.3404C75.2778 29.1867 74.9495 27.8723 74.9495 26.3972C74.9495 24.9031 75.2778 23.5887 75.9341 22.4539C76.5907 21.3191 77.4813 20.4303 78.6066 19.7872C79.7319 19.1442 81.0167 18.8227 82.4607 18.8227C83.9235 18.8227 85.2176 19.1442 86.3429 19.7872C87.487 20.4303 88.378 21.3191 89.0154 22.4539C89.6721 23.5887 90 24.9031 90 26.3972C90 27.8723 89.6721 29.1867 89.0154 30.3404C88.378 31.4752 87.487 32.3735 86.3429 33.0355C85.1991 33.6785 83.905 34 82.4607 34ZM82.4607 32.2128C83.5297 32.2128 84.4769 31.9764 85.302 31.5035C86.1275 31.0118 86.7745 30.331 87.2431 29.461C87.731 28.5721 87.9745 27.5508 87.9745 26.3972C87.9745 25.2246 87.731 24.2033 87.2431 23.3333C86.7745 22.4633 86.1275 21.792 85.302 21.3191C84.4769 20.8274 83.5393 20.5816 82.4888 20.5816C81.4387 20.5816 80.5011 20.8274 79.6756 21.3191C78.8505 21.792 78.1943 22.4633 77.7064 23.3333C77.2189 24.2033 76.975 25.2246 76.975 26.3972C76.975 27.5508 77.2189 28.5721 77.7064 29.461C78.1943 30.331 78.8505 31.0118 79.6756 31.5035C80.5011 31.9764 81.4294 32.2128 82.4607 32.2128Z" fill="white"/>
<path d="M103.57 35C102.048 35 100.643 34.7335 99.3533 34.2005C98.0632 33.6471 96.9469 32.8783 96.0034 31.8944C95.0599 30.9104 94.3189 29.7522 93.7797 28.4198C93.2599 27.0874 93 25.6319 93 24.0535C93 22.4751 93.2599 21.0196 93.7797 19.6872C94.3189 18.3547 95.0599 17.1965 96.0034 16.2126C96.9659 15.2286 98.0921 14.4701 99.3822 13.9372C100.672 13.3837 102.077 13.107 103.598 13.107C105.062 13.107 106.438 13.3735 107.728 13.9064C109.018 14.4189 110.106 15.1979 110.991 16.2433L109.634 17.6885C108.806 16.7866 107.892 16.1408 106.891 15.7513C105.889 15.3414 104.811 15.1364 103.656 15.1364C102.443 15.1364 101.317 15.3618 100.277 15.8128C99.2378 16.2433 98.3331 16.8685 97.5628 17.6885C96.7926 18.488 96.1861 19.4309 95.7435 20.5174C95.3198 21.5833 95.1081 22.762 95.1081 24.0535C95.1081 25.3449 95.3198 26.5339 95.7435 27.6203C96.1861 28.6863 96.7926 29.6292 97.5628 30.4492C98.3331 31.2487 99.2378 31.8739 100.277 32.3249C101.317 32.7554 102.443 32.9706 103.656 32.9706C104.811 32.9706 105.889 32.7656 106.891 32.3556C107.892 31.9456 108.806 31.2896 109.634 30.3877L110.991 31.8329C110.106 32.8783 109.018 33.6676 107.728 34.2005C106.438 34.7335 105.052 35 103.57 35ZM124.389 34.8155V31.2487L124.303 30.6644V24.6992C124.303 23.3257 123.937 22.2701 123.205 21.5321C122.493 20.7941 121.424 20.4251 120 20.4251C119.018 20.4251 118.084 20.5994 117.199 20.9479C116.313 21.2963 115.562 21.7576 114.946 22.3316L114.022 20.7019C114.792 20.0049 115.716 19.4719 116.794 19.1029C117.872 18.7134 119.008 18.5187 120.202 18.5187C122.166 18.5187 123.677 19.0414 124.736 20.0869C125.814 21.1118 126.353 22.68 126.353 24.7914V34.8155H124.389ZM119.162 34.9693C118.026 34.9693 117.035 34.7745 116.188 34.385C115.36 33.9751 114.725 33.4216 114.282 32.7246C113.839 32.0071 113.618 31.1872 113.618 30.2647C113.618 29.4243 113.8 28.6658 114.166 27.9893C114.551 27.2923 115.167 26.7388 116.015 26.3289C116.881 25.8984 118.036 25.6832 119.48 25.6832H124.707V27.3128H119.538C118.074 27.3128 117.054 27.5896 116.477 28.143C115.918 28.6965 115.639 29.3832 115.639 30.2032C115.639 31.1257 115.976 31.8636 116.65 32.4171C117.324 32.9706 118.267 33.2473 119.48 33.2473C120.635 33.2473 121.627 32.9706 122.455 32.4171C123.301 31.8431 123.917 31.0232 124.303 29.9572L124.765 31.4639C124.379 32.5299 123.706 33.3806 122.743 34.016C121.8 34.6515 120.606 34.9693 119.162 34.9693ZM135.994 34.9693C134.742 34.9693 133.558 34.7848 132.442 34.4158C131.325 34.0263 130.449 33.5446 129.814 32.9706L130.738 31.2487C131.354 31.7406 132.143 32.1711 133.106 32.5401C134.069 32.8886 135.079 33.0628 136.138 33.0628C137.582 33.0628 138.622 32.8271 139.257 32.3556C139.893 31.8636 140.21 31.2179 140.21 30.4184C140.21 29.824 140.027 29.3628 139.662 29.0348C139.315 28.6863 138.853 28.43 138.275 28.266C137.698 28.0816 137.053 27.9278 136.341 27.8048C135.628 27.6818 134.916 27.5383 134.204 27.3743C133.51 27.2104 132.875 26.9746 132.298 26.6671C131.72 26.3391 131.248 25.8984 130.883 25.3449C130.536 24.7914 130.363 24.0535 130.363 23.131C130.363 22.2495 130.594 21.4604 131.056 20.7634C131.518 20.0664 132.192 19.5232 133.077 19.1337C133.982 18.7237 135.079 18.5187 136.369 18.5187C137.351 18.5187 138.333 18.6622 139.315 18.9492C140.297 19.2157 141.106 19.5744 141.741 20.0254L140.846 21.7781C140.172 21.2861 139.45 20.9376 138.68 20.7326C137.91 20.5071 137.139 20.3944 136.369 20.3944C135.002 20.3944 133.992 20.6506 133.337 21.1631C132.702 21.6551 132.384 22.2906 132.384 23.0695C132.384 23.6845 132.557 24.1662 132.904 24.5147C133.27 24.8632 133.742 25.1399 134.319 25.3449C134.916 25.5294 135.561 25.6832 136.254 25.8061C136.966 25.9291 137.669 26.0829 138.362 26.2674C139.074 26.4314 139.719 26.6671 140.297 26.9746C140.894 27.2616 141.365 27.6818 141.712 28.2353C142.078 28.7683 142.261 29.4755 142.261 30.357C142.261 31.2999 142.01 32.1199 141.51 32.8168C141.028 33.4933 140.316 34.0263 139.373 34.4158C138.449 34.7848 137.322 34.9693 135.994 34.9693ZM153.762 18.5187C154.995 18.5187 156.073 18.7749 156.997 19.2874C157.94 19.7794 158.672 20.5379 159.191 21.5628C159.731 22.5878 160 23.8792 160 25.4372V34.8155H157.95V25.6524C157.95 23.951 157.545 22.6698 156.737 21.8088C155.948 20.9273 154.831 20.4866 153.387 20.4866C152.309 20.4866 151.365 20.7224 150.557 21.1939C149.767 21.6448 149.152 22.311 148.708 23.1925C148.285 24.0535 148.073 25.0989 148.073 26.3289V34.8155H146.023V12H148.073V23.1003L147.669 22.2701C148.15 21.1016 148.921 20.1894 149.979 19.5334C151.038 18.857 152.299 18.5187 153.762 18.5187Z" fill="white"/>
<path d="M40.129 49C39.5032 49 38.9015 48.8997 38.3238 48.6992C37.7542 48.4906 37.3129 48.2259 37 47.9051L37.349 47.2193C37.6459 47.508 38.043 47.7527 38.5404 47.9532C39.0459 48.1457 39.5754 48.242 40.129 48.242C40.6585 48.242 41.0877 48.1778 41.4166 48.0495C41.7536 47.9131 41.9983 47.7326 42.1507 47.508C42.3112 47.2834 42.3914 47.0348 42.3914 46.762C42.3914 46.4332 42.2951 46.1685 42.1026 45.9679C41.9181 45.7674 41.6734 45.611 41.3685 45.4987C41.0637 45.3783 40.7267 45.2741 40.3576 45.1858C39.9886 45.0976 39.6195 45.0053 39.2504 44.9091C38.8814 44.8048 38.5404 44.6684 38.2275 44.5C37.9227 44.3316 37.6739 44.111 37.4814 43.8382C37.2969 43.5575 37.2046 43.1925 37.2046 42.7433C37.2046 42.3262 37.3129 41.9452 37.5295 41.6003C37.7542 41.2473 38.0951 40.9666 38.5525 40.758C39.0098 40.5414 39.5955 40.4332 40.3095 40.4332C40.7829 40.4332 41.2521 40.5013 41.7175 40.6377C42.1828 40.766 42.584 40.9465 42.9209 41.1791L42.6201 41.889C42.259 41.6484 41.8739 41.4719 41.4648 41.3596C41.0637 41.2473 40.6745 41.1912 40.2974 41.1912C39.792 41.1912 39.3748 41.2594 39.0459 41.3957C38.7169 41.5321 38.4722 41.7166 38.3118 41.9492C38.1593 42.1738 38.0831 42.4305 38.0831 42.7193C38.0831 43.0481 38.1754 43.3128 38.3599 43.5134C38.5525 43.7139 38.8012 43.8703 39.1061 43.9826C39.419 44.0949 39.7599 44.1952 40.129 44.2834C40.4981 44.3717 40.8631 44.4679 41.2241 44.5722C41.5931 44.6765 41.9301 44.8128 42.235 44.9813C42.5479 45.1417 42.7966 45.3583 42.9811 45.631C43.1737 45.9037 43.2699 46.2607 43.2699 46.7019C43.2699 47.111 43.1576 47.492 42.933 47.8449C42.7083 48.1898 42.3633 48.4706 41.898 48.6872C41.4407 48.8957 40.8511 49 40.129 49ZM47.6052 48.988C46.9954 48.988 46.4459 48.8516 45.9565 48.5789C45.4751 48.2981 45.094 47.9171 44.8132 47.4358C44.5324 46.9465 44.392 46.389 44.392 45.7634C44.392 45.1297 44.5324 44.5722 44.8132 44.0909C45.094 43.6096 45.4751 43.2326 45.9565 42.9599C46.4378 42.6872 46.9874 42.5508 47.6052 42.5508C48.231 42.5508 48.7846 42.6872 49.266 42.9599C49.7554 43.2326 50.1365 43.6096 50.4093 44.0909C50.6901 44.5722 50.8305 45.1297 50.8305 45.7634C50.8305 46.389 50.6901 46.9465 50.4093 47.4358C50.1365 47.9171 49.7554 48.2981 49.266 48.5789C48.7766 48.8516 48.223 48.988 47.6052 48.988ZM47.6052 48.2299C48.0625 48.2299 48.4677 48.1297 48.8207 47.9291C49.1737 47.7206 49.4505 47.4318 49.6511 47.0628C49.8597 46.6858 49.964 46.2527 49.964 45.7634C49.964 45.266 49.8597 44.8329 49.6511 44.4639C49.4505 44.0949 49.1737 43.8102 48.8207 43.6096C48.4677 43.4011 48.0665 43.2968 47.6172 43.2968C47.1679 43.2968 46.7668 43.4011 46.4138 43.6096C46.0608 43.8102 45.78 44.0949 45.5714 44.4639C45.3628 44.8329 45.2585 45.266 45.2585 45.7634C45.2585 46.2527 45.3628 46.6858 45.5714 47.0628C45.78 47.4318 46.0608 47.7206 46.4138 47.9291C46.7668 48.1297 47.1639 48.2299 47.6052 48.2299ZM52.5751 48.9278V40H53.4295V48.9278H52.5751ZM58.4183 48.988C57.8807 48.988 57.4114 48.8877 57.0102 48.6872C56.6091 48.4866 56.2962 48.1858 56.0715 47.7848C55.8549 47.3837 55.7466 46.8824 55.7466 46.2807V42.611H56.6011V46.1845C56.6011 46.8583 56.7655 47.3676 57.0945 47.7126C57.4314 48.0495 57.9008 48.2179 58.5025 48.2179C58.9438 48.2179 59.3249 48.1297 59.6458 47.9532C59.9748 47.7687 60.2235 47.504 60.392 47.1591C60.5685 46.8142 60.6567 46.4011 60.6567 45.9198V42.611H61.5112V48.9278H60.6928V47.1952L60.8252 47.508C60.6246 47.9733 60.3117 48.3382 59.8865 48.6029C59.4693 48.8596 58.9799 48.988 58.4183 48.988ZM65.8906 48.988C65.2969 48.988 64.8395 48.8275 64.5186 48.5067C64.1977 48.1858 64.0372 47.7326 64.0372 47.1471V41.2152H64.8917V47.0989C64.8917 47.4679 64.9839 47.7527 65.1685 47.9532C65.361 48.1537 65.6338 48.254 65.9868 48.254C66.3639 48.254 66.6768 48.1457 66.9255 47.9291L67.2264 48.5428C67.0579 48.6952 66.8533 48.8075 66.6126 48.8797C66.38 48.9519 66.1393 48.988 65.8906 48.988ZM62.906 43.3209V42.611H66.8172V43.3209H62.906ZM68.7817 48.9278V42.611H69.6361V48.9278H68.7817ZM69.2149 41.2152C69.0384 41.2152 68.89 41.1551 68.7696 41.0348C68.6493 40.9144 68.5891 40.7701 68.5891 40.6016C68.5891 40.4332 68.6493 40.2928 68.7696 40.1805C68.89 40.0602 69.0384 40 69.2149 40C69.3914 40 69.5398 40.0562 69.6602 40.1685C69.7805 40.2808 69.8407 40.4211 69.8407 40.5896C69.8407 40.766 69.7805 40.9144 69.6602 41.0348C69.5479 41.1551 69.3994 41.2152 69.2149 41.2152ZM74.5892 48.988C73.9794 48.988 73.4298 48.8516 72.9404 48.5789C72.459 48.2981 72.0779 47.9171 71.7971 47.4358C71.5163 46.9465 71.3759 46.389 71.3759 45.7634C71.3759 45.1297 71.5163 44.5722 71.7971 44.0909C72.0779 43.6096 72.459 43.2326 72.9404 42.9599C73.4218 42.6872 73.9714 42.5508 74.5892 42.5508C75.215 42.5508 75.7686 42.6872 76.2499 42.9599C76.7393 43.2326 77.1204 43.6096 77.3932 44.0909C77.674 44.5722 77.8144 45.1297 77.8144 45.7634C77.8144 46.389 77.674 46.9465 77.3932 47.4358C77.1204 47.9171 76.7393 48.2981 76.2499 48.5789C75.7605 48.8516 75.2069 48.988 74.5892 48.988ZM74.5892 48.2299C75.0465 48.2299 75.4516 48.1297 75.8047 47.9291C76.1577 47.7206 76.4345 47.4318 76.635 47.0628C76.8436 46.6858 76.9479 46.2527 76.9479 45.7634C76.9479 45.266 76.8436 44.8329 76.635 44.4639C76.4345 44.0949 76.1577 43.8102 75.8047 43.6096C75.4516 43.4011 75.0505 43.2968 74.6012 43.2968C74.1519 43.2968 73.7508 43.4011 73.3977 43.6096C73.0447 43.8102 72.7639 44.0949 72.5553 44.4639C72.3467 44.8329 72.2424 45.266 72.2424 45.7634C72.2424 46.2527 72.3467 46.6858 72.5553 47.0628C72.7639 47.4318 73.0447 47.7206 73.3977 47.9291C73.7508 48.1297 74.1479 48.2299 74.5892 48.2299ZM82.7839 42.5508C83.2974 42.5508 83.7467 42.6511 84.1318 42.8516C84.5249 43.0441 84.8298 43.3409 85.0464 43.742C85.2711 44.143 85.3834 44.6484 85.3834 45.258V48.9278H84.5289V45.3422C84.5289 44.6765 84.3604 44.1751 84.0235 43.8382C83.6945 43.4933 83.2292 43.3209 82.6275 43.3209C82.1782 43.3209 81.785 43.4131 81.4481 43.5976C81.1191 43.7741 80.8624 44.0348 80.6779 44.3797C80.5014 44.7166 80.4131 45.1257 80.4131 45.607V48.9278H79.5586V42.611H80.377V44.3436L80.2446 44.0187C80.4452 43.5615 80.7661 43.2045 81.2074 42.9479C81.6486 42.6832 82.1742 42.5508 82.7839 42.5508ZM89.3885 48.988C88.867 48.988 88.3736 48.9158 87.9082 48.7714C87.4429 48.619 87.0779 48.4305 86.8131 48.2059L87.1982 47.5321C87.4549 47.7246 87.7839 47.893 88.185 48.0374C88.5862 48.1738 89.0074 48.242 89.4487 48.242C90.0504 48.242 90.4836 48.1497 90.7484 47.9652C91.0132 47.7727 91.1455 47.5201 91.1455 47.2072C91.1455 46.9746 91.0693 46.7941 90.9169 46.6658C90.7725 46.5294 90.5799 46.4291 90.3392 46.365C90.0985 46.2928 89.8298 46.2326 89.5329 46.1845C89.2361 46.1364 88.9392 46.0802 88.6424 46.016C88.3535 45.9519 88.0888 45.8596 87.8481 45.7393C87.6074 45.611 87.4108 45.4385 87.2584 45.2219C87.114 45.0053 87.0417 44.7166 87.0417 44.3556C87.0417 44.0107 87.138 43.7019 87.3306 43.4291C87.5231 43.1564 87.8039 42.9438 88.173 42.7914C88.5501 42.631 89.0074 42.5508 89.5449 42.5508C89.9541 42.5508 90.3633 42.607 90.7725 42.7193C91.1816 42.8235 91.5186 42.9639 91.7834 43.1404L91.4103 43.8262C91.1295 43.6337 90.8286 43.4973 90.5077 43.4171C90.1868 43.3289 89.8659 43.2848 89.5449 43.2848C88.9753 43.2848 88.5541 43.385 88.2813 43.5856C88.0165 43.7781 87.8842 44.0267 87.8842 44.3316C87.8842 44.5722 87.9564 44.7607 88.1008 44.8971C88.2532 45.0334 88.4498 45.1417 88.6905 45.2219C88.9392 45.2941 89.208 45.3543 89.4968 45.4024C89.7937 45.4505 90.0865 45.5107 90.3753 45.5829C90.6722 45.6471 90.941 45.7393 91.1817 45.8596C91.4304 45.9719 91.6269 46.1364 91.7713 46.3529C91.9238 46.5615 92 46.8382 92 47.1832C92 47.5521 91.8957 47.873 91.6871 48.1457C91.4865 48.4104 91.1897 48.619 90.7965 48.7714C90.4114 48.9158 89.9421 48.988 89.3885 48.988Z" fill="white"/>
<path d="M18.3729 0V5.32683H20.1653V0H18.3729ZM8.96239 5.77076L9.85861 7.99029L12.0992 7.54637L11.203 4.88295L8.96239 5.77076ZM27.3352 4.88295L26.439 7.54637L28.6796 7.99029L29.5759 5.77076L27.3352 4.88295ZM10.7549 35.9562H12.9954C12.9473 30.2707 7.42663 26.0278 8.20274 20.4196C9.10731 13.8832 16.4781 13.2167 18.3729 19.5318H20.6135C20.1597 15.1663 17.1754 12.9896 12.9954 12.4293V11.9854C15.2158 11.3579 17.3375 10.1552 19.7172 10.3043C25.578 10.6717 30.9615 16.2724 30.3829 22.1952C29.8421 27.7312 25.5434 31.3219 25.5428 37.288C22.4307 37.288 13.6385 35.6903 12.9954 39.5075H27.7834C27.2319 31.4558 34.4224 25.7328 32.1297 17.7562C28.6902 5.78963 11.6488 5.14324 6.8781 16.4245C3.52629 24.3503 10.5978 28.6516 10.7549 35.9562ZM0.896243 9.7659C0.436252 12.5008 4.14289 15.3464 5.82556 12.4293L0.896243 9.7659ZM37.1939 9.7659L32.7127 12.4293C34.176 14.9661 36.7399 12.8135 38.5382 11.5415V11.0976L37.1939 9.7659ZM25.2305 16.9461C23.7338 17.675 24.7573 19.8612 26.3031 19.2379C27.8347 18.6203 26.6938 16.2335 25.2305 16.9461ZM0.448128 20.4196C0.74019 22.1556 1.40514 22.5059 3.13684 22.6391V20.4196H0.448128ZM37.1939 14.3368L37.4815 22.899C38.5 14.5359 44 21.1069 44 21.1069L40.537 16.328L38.9074 14.3368H37.1939ZM11.203 21.3074C12.6057 31.5673 25.9325 31.5673 27.3352 21.3074H25.0946C23.7798 28.4981 14.7584 28.4982 13.4435 21.3074H11.203ZM0 31.0733L0.896243 32.8489L5.82556 30.6294L4.9293 28.4099L0 31.0733ZM14.7879 41.2832V43.5026L19.2691 45L23.7503 43.5026V41.2832H14.7879Z" fill="white"/>
</svg>
