<svg width="164" height="51" viewBox="0 0 164 51" fill="none" xmlns="http://www.w3.org/2000/svg">
<path d="M38 36.8511V16H39.7808L53.8812 34.1106H52.947V16H55.0781V36.8511H53.2974L39.2261 18.7404H40.1603V36.8511H38ZM67.8203 37C66.2246 37 64.8233 36.6624 63.6164 35.9872C62.4099 35.2922 61.4661 34.3489 60.7846 33.1574C60.1036 31.9461 59.7629 30.566 59.7629 29.017C59.7629 27.4681 60.084 26.0979 60.7262 24.9064C61.3881 23.7149 62.2835 22.7816 63.412 22.1064C64.5606 21.4114 65.8451 21.0638 67.2656 21.0638C68.7061 21.0638 69.9806 21.4014 71.0899 22.0766C72.2189 22.7319 73.1043 23.6652 73.7465 24.8766C74.3888 26.0681 74.7099 27.4482 74.7099 29.017C74.7099 29.1163 74.7003 29.2255 74.6807 29.3447C74.6807 29.444 74.6807 29.5532 74.6807 29.6723H61.3393V28.0936H73.5714L72.7539 28.7191C72.7539 27.5872 72.5108 26.5844 72.0241 25.7106C71.557 24.817 70.9147 24.122 70.0973 23.6255C69.2799 23.1291 68.3361 22.8809 67.2656 22.8809C66.2146 22.8809 65.2708 23.1291 64.4338 23.6255C63.5972 24.122 62.945 24.817 62.4779 25.7106C62.0108 26.6043 61.7772 27.6269 61.7772 28.7787V29.1064C61.7772 30.2979 62.0304 31.3503 62.5362 32.2638C63.0617 33.1574 63.782 33.8624 64.6966 34.3787C65.6307 34.8752 66.6917 35.1234 67.8786 35.1234C68.8128 35.1234 69.679 34.9546 70.4769 34.617C71.2943 34.2794 71.9949 33.7631 72.5788 33.0681L73.7465 34.4383C73.0655 35.2723 72.2093 35.9078 71.1775 36.3447C70.1657 36.7816 69.0464 37 67.8203 37ZM85.1762 37C83.6973 37 82.364 36.6624 81.1767 35.9872C80.0089 35.2922 79.0847 34.3489 78.4033 33.1574C77.7222 31.9461 77.3815 30.566 77.3815 29.017C77.3815 27.4482 77.7222 26.0681 78.4033 24.8766C79.0847 23.6851 80.0089 22.7518 81.1767 22.0766C82.3444 21.4014 83.6777 21.0638 85.1762 21.0638C86.6942 21.0638 88.0371 21.4014 89.2049 22.0766C90.3922 22.7518 91.3168 23.6851 91.9782 24.8766C92.6597 26.0681 93 27.4482 93 29.017C93 30.566 92.6597 31.9461 91.9782 33.1574C91.3168 34.3489 90.3922 35.2922 89.2049 35.9872C88.0179 36.6624 86.675 37 85.1762 37ZM85.1762 35.1234C86.2855 35.1234 87.2685 34.8752 88.1247 34.3787C88.9813 33.8624 89.6528 33.1475 90.139 32.234C90.6453 31.3007 90.8981 30.2284 90.8981 29.017C90.8981 27.7858 90.6453 26.7135 90.139 25.8C89.6528 24.8865 88.9813 24.1816 88.1247 23.6851C87.2685 23.1688 86.2955 22.9106 85.2054 22.9106C84.1156 22.9106 83.1426 23.1688 82.286 23.6851C81.4298 24.1816 80.7488 24.8865 80.2425 25.8C79.7366 26.7135 79.4834 27.7858 79.4834 29.017C79.4834 30.2284 79.7366 31.3007 80.2425 32.234C80.7488 33.1475 81.4298 33.8624 82.286 34.3787C83.1426 34.8752 84.106 35.1234 85.1762 35.1234Z" fill="white"/>
<path d="M107.57 37C106.048 37 104.643 36.7335 103.353 36.2005C102.063 35.6471 100.947 34.8783 100.003 33.8944C99.0599 32.9104 98.3189 31.7522 97.7797 30.4198C97.2599 29.0874 97 27.6319 97 26.0535C97 24.4751 97.2599 23.0196 97.7797 21.6872C98.3189 20.3547 99.0599 19.1965 100.003 18.2126C100.966 17.2286 102.092 16.4701 103.382 15.9372C104.672 15.3837 106.077 15.107 107.598 15.107C109.062 15.107 110.438 15.3735 111.728 15.9064C113.018 16.4189 114.106 17.1979 114.991 18.2433L113.634 19.6885C112.806 18.7866 111.892 18.1408 110.891 17.7513C109.889 17.3414 108.811 17.1364 107.656 17.1364C106.443 17.1364 105.317 17.3618 104.277 17.8128C103.238 18.2433 102.333 18.8685 101.563 19.6885C100.793 20.488 100.186 21.4309 99.7435 22.5174C99.3198 23.5833 99.1081 24.762 99.1081 26.0535C99.1081 27.3449 99.3198 28.5339 99.7435 29.6203C100.186 30.6863 100.793 31.6292 101.563 32.4492C102.333 33.2487 103.238 33.8739 104.277 34.3249C105.317 34.7554 106.443 34.9706 107.656 34.9706C108.811 34.9706 109.889 34.7656 110.891 34.3556C111.892 33.9456 112.806 33.2896 113.634 32.3877L114.991 33.8329C114.106 34.8783 113.018 35.6676 111.728 36.2005C110.438 36.7335 109.052 37 107.57 37ZM128.389 36.8155V33.2487L128.303 32.6644V26.6992C128.303 25.3257 127.937 24.2701 127.205 23.5321C126.493 22.7941 125.424 22.4251 124 22.4251C123.018 22.4251 122.084 22.5994 121.199 22.9479C120.313 23.2963 119.562 23.7576 118.946 24.3316L118.022 22.7019C118.792 22.0049 119.716 21.4719 120.794 21.1029C121.872 20.7134 123.008 20.5187 124.202 20.5187C126.166 20.5187 127.677 21.0414 128.736 22.0869C129.814 23.1118 130.353 24.68 130.353 26.7914V36.8155H128.389ZM123.162 36.9693C122.026 36.9693 121.035 36.7745 120.188 36.385C119.36 35.9751 118.725 35.4216 118.282 34.7246C117.839 34.0071 117.618 33.1872 117.618 32.2647C117.618 31.4243 117.8 30.6658 118.166 29.9893C118.551 29.2923 119.167 28.7388 120.015 28.3289C120.881 27.8984 122.036 27.6832 123.48 27.6832H128.707V29.3128H123.538C122.074 29.3128 121.054 29.5896 120.477 30.143C119.918 30.6965 119.639 31.3832 119.639 32.2032C119.639 33.1257 119.976 33.8636 120.65 34.4171C121.324 34.9706 122.267 35.2473 123.48 35.2473C124.635 35.2473 125.627 34.9706 126.455 34.4171C127.301 33.8431 127.917 33.0232 128.303 31.9572L128.765 33.4639C128.379 34.5299 127.706 35.3806 126.743 36.016C125.8 36.6515 124.606 36.9693 123.162 36.9693ZM139.994 36.9693C138.742 36.9693 137.558 36.7848 136.442 36.4158C135.325 36.0263 134.449 35.5446 133.814 34.9706L134.738 33.2487C135.354 33.7406 136.143 34.1711 137.106 34.5401C138.069 34.8886 139.079 35.0628 140.138 35.0628C141.582 35.0628 142.622 34.8271 143.257 34.3556C143.893 33.8636 144.21 33.2179 144.21 32.4184C144.21 31.824 144.027 31.3628 143.662 31.0348C143.315 30.6863 142.853 30.43 142.275 30.266C141.698 30.0816 141.053 29.9278 140.341 29.8048C139.628 29.6818 138.916 29.5383 138.204 29.3743C137.51 29.2104 136.875 28.9746 136.298 28.6671C135.72 28.3391 135.248 27.8984 134.883 27.3449C134.536 26.7914 134.363 26.0535 134.363 25.131C134.363 24.2495 134.594 23.4604 135.056 22.7634C135.518 22.0664 136.192 21.5232 137.077 21.1337C137.982 20.7237 139.079 20.5187 140.369 20.5187C141.351 20.5187 142.333 20.6622 143.315 20.9492C144.297 21.2157 145.106 21.5744 145.741 22.0254L144.846 23.7781C144.172 23.2861 143.45 22.9376 142.68 22.7326C141.91 22.5071 141.139 22.3944 140.369 22.3944C139.002 22.3944 137.992 22.6506 137.337 23.1631C136.702 23.6551 136.384 24.2906 136.384 25.0695C136.384 25.6845 136.557 26.1662 136.904 26.5147C137.27 26.8632 137.742 27.1399 138.319 27.3449C138.916 27.5294 139.561 27.6832 140.254 27.8061C140.966 27.9291 141.669 28.0829 142.362 28.2674C143.074 28.4314 143.719 28.6671 144.297 28.9746C144.894 29.2616 145.365 29.6818 145.712 30.2353C146.078 30.7683 146.261 31.4755 146.261 32.357C146.261 33.2999 146.01 34.1199 145.51 34.8168C145.028 35.4933 144.316 36.0263 143.373 36.4158C142.449 36.7848 141.322 36.9693 139.994 36.9693ZM157.762 20.5187C158.995 20.5187 160.073 20.7749 160.997 21.2874C161.94 21.7794 162.672 22.5379 163.191 23.5628C163.731 24.5878 164 25.8792 164 27.4372V36.8155H161.95V27.6524C161.95 25.951 161.545 24.6698 160.737 23.8088C159.948 22.9273 158.831 22.4866 157.387 22.4866C156.309 22.4866 155.365 22.7224 154.557 23.1939C153.767 23.6448 153.152 24.311 152.708 25.1925C152.285 26.0535 152.073 27.0989 152.073 28.3289V36.8155H150.023V14H152.073V25.1003L151.669 24.2701C152.15 23.1016 152.921 22.1894 153.979 21.5334C155.038 20.857 156.299 20.5187 157.762 20.5187Z" fill="#D4AA00"/>
<path d="M40.2428 51C39.5942 51 38.9706 50.8997 38.3719 50.6992C37.7816 50.4906 37.3243 50.2259 37 49.9051L37.3617 49.2193C37.6693 49.508 38.0809 49.7527 38.5964 49.9532C39.1203 50.1457 39.669 50.242 40.2428 50.242C40.7915 50.242 41.2364 50.1778 41.5773 50.0495C41.9266 49.9131 42.1802 49.7326 42.3381 49.508C42.5044 49.2834 42.5876 49.0348 42.5876 48.762C42.5876 48.4332 42.4878 48.1685 42.2882 47.9679C42.097 47.7674 41.8434 47.611 41.5274 47.4987C41.2114 47.3783 40.8622 47.2741 40.4797 47.1858C40.0973 47.0976 39.7148 47.0053 39.3323 46.9091C38.9498 46.8048 38.5964 46.6684 38.2722 46.5C37.9562 46.3316 37.6984 46.111 37.4989 45.8382C37.3076 45.5575 37.212 45.1925 37.212 44.7433C37.212 44.3262 37.3243 43.9452 37.5488 43.6003C37.7816 43.2473 38.135 42.9666 38.6089 42.758C39.0829 42.5414 39.6898 42.4332 40.4299 42.4332C40.9204 42.4332 41.4069 42.5013 41.8891 42.6377C42.3714 42.766 42.7871 42.9465 43.1364 43.1791L42.8246 43.889C42.4504 43.6484 42.0513 43.4719 41.6272 43.3596C41.2114 43.2473 40.8082 43.1912 40.4174 43.1912C39.8935 43.1912 39.4612 43.2594 39.1203 43.3957C38.7794 43.5321 38.5258 43.7166 38.3595 43.9492C38.2015 44.1738 38.1225 44.4305 38.1225 44.7193C38.1225 45.0481 38.2181 45.3128 38.4094 45.5134C38.6089 45.7139 38.8667 45.8703 39.1826 45.9826C39.5069 46.0949 39.8603 46.1952 40.2428 46.2834C40.6252 46.3717 41.0036 46.4679 41.3777 46.5722C41.7603 46.6765 42.1095 46.8128 42.4254 46.9813C42.7497 47.1417 43.0075 47.3583 43.1987 47.631C43.3983 47.9037 43.4981 48.2607 43.4981 48.7019C43.4981 49.111 43.3816 49.492 43.1488 49.8449C42.916 50.1898 42.5585 50.4706 42.0762 50.6872C41.6023 50.8957 40.9911 51 40.2428 51ZM47.9909 50.988C47.359 50.988 46.7895 50.8516 46.2823 50.5789C45.7834 50.2981 45.3884 49.9171 45.0974 49.4358C44.8064 48.9465 44.6609 48.389 44.6609 47.7634C44.6609 47.1297 44.8064 46.5722 45.0974 46.0909C45.3884 45.6096 45.7834 45.2326 46.2823 44.9599C46.7811 44.6872 47.3507 44.5508 47.9909 44.5508C48.6395 44.5508 49.2132 44.6872 49.7121 44.9599C50.2193 45.2326 50.6143 45.6096 50.897 46.0909C51.188 46.5722 51.3335 47.1297 51.3335 47.7634C51.3335 48.389 51.188 48.9465 50.897 49.4358C50.6143 49.9171 50.2193 50.2981 49.7121 50.5789C49.2049 50.8516 48.6312 50.988 47.9909 50.988ZM47.9909 50.2299C48.4649 50.2299 48.8848 50.1297 49.2506 49.9291C49.6165 49.7206 49.9033 49.4318 50.1112 49.0628C50.3274 48.6858 50.4355 48.2527 50.4355 47.7634C50.4355 47.266 50.3274 46.8329 50.1112 46.4639C49.9033 46.0949 49.6165 45.8102 49.2506 45.6096C48.8848 45.4011 48.469 45.2968 48.0034 45.2968C47.5378 45.2968 47.1221 45.4011 46.7562 45.6096C46.3903 45.8102 46.0993 46.0949 45.8831 46.4639C45.667 46.8329 45.5589 47.266 45.5589 47.7634C45.5589 48.2527 45.667 48.6858 45.8831 49.0628C46.0993 49.4318 46.3903 49.7206 46.7562 49.9291C47.1221 50.1297 47.5336 50.2299 47.9909 50.2299ZM53.1415 50.9278V42H54.0271V50.9278H53.1415ZM59.1972 50.988C58.6401 50.988 58.1537 50.8877 57.738 50.6872C57.3222 50.4866 56.9979 50.1858 56.7651 49.7848C56.5406 49.3837 56.4284 48.8824 56.4284 48.2807V44.611H57.3139V48.1845C57.3139 48.8583 57.4844 49.3676 57.8253 49.7126C58.1745 50.0495 58.6609 50.2179 59.2845 50.2179C59.7418 50.2179 60.1368 50.1297 60.4694 49.9532C60.8103 49.7687 61.068 49.504 61.2426 49.1591C61.4256 48.8142 61.517 48.4011 61.517 47.9198V44.611H62.4026V50.9278H61.5544V49.1952L61.6916 49.508C61.4838 49.9733 61.1595 50.3382 60.7188 50.6029C60.2864 50.8596 59.7792 50.988 59.1972 50.988ZM66.9412 50.988C66.3259 50.988 65.8519 50.8275 65.5194 50.5067C65.1868 50.1858 65.0205 49.7326 65.0205 49.1471V43.2152H65.906V49.0989C65.906 49.4679 66.0016 49.7527 66.1929 49.9532C66.3924 50.1537 66.6751 50.254 67.041 50.254C67.4318 50.254 67.756 50.1457 68.0138 49.9291L68.3256 50.5428C68.151 50.6952 67.939 50.8075 67.6895 50.8797C67.4484 50.9519 67.1989 50.988 66.9412 50.988ZM63.8481 45.3209V44.611H67.9015V45.3209H63.8481ZM69.9374 50.9278V44.611H70.8229V50.9278H69.9374ZM70.3864 43.2152C70.2035 43.2152 70.0497 43.1551 69.9249 43.0348C69.8002 42.9144 69.7379 42.7701 69.7379 42.6016C69.7379 42.4332 69.8002 42.2928 69.9249 42.1805C70.0497 42.0602 70.2035 42 70.3864 42C70.5693 42 70.7232 42.0562 70.8479 42.1685C70.9726 42.2808 71.035 42.4211 71.035 42.5896C71.035 42.766 70.9726 42.9144 70.8479 43.0348C70.7315 43.1551 70.5777 43.2152 70.3864 43.2152ZM75.9561 50.988C75.3242 50.988 74.7546 50.8516 74.2474 50.5789C73.7485 50.2981 73.3535 49.9171 73.0625 49.4358C72.7715 48.9465 72.626 48.389 72.626 47.7634C72.626 47.1297 72.7715 46.5722 73.0625 46.0909C73.3535 45.6096 73.7485 45.2326 74.2474 44.9599C74.7463 44.6872 75.3158 44.5508 75.9561 44.5508C76.6046 44.5508 77.1784 44.6872 77.6772 44.9599C78.1844 45.2326 78.5794 45.6096 78.8621 46.0909C79.1531 46.5722 79.2986 47.1297 79.2986 47.7634C79.2986 48.389 79.1531 48.9465 78.8621 49.4358C78.5794 49.9171 78.1844 50.2981 77.6772 50.5789C77.17 50.8516 76.5963 50.988 75.9561 50.988ZM75.9561 50.2299C76.43 50.2299 76.8499 50.1297 77.2158 49.9291C77.5816 49.7206 77.8685 49.4318 78.0763 49.0628C78.2925 48.6858 78.4006 48.2527 78.4006 47.7634C78.4006 47.266 78.2925 46.8329 78.0763 46.4639C77.8685 46.0949 77.5816 45.8102 77.2158 45.6096C76.8499 45.4011 76.4342 45.2968 75.9686 45.2968C75.5029 45.2968 75.0872 45.4011 74.7213 45.6096C74.3555 45.8102 74.0645 46.0949 73.8483 46.4639C73.6321 46.8329 73.524 47.266 73.524 47.7634C73.524 48.2527 73.6321 48.6858 73.8483 49.0628C74.0645 49.4318 74.3555 49.7206 74.7213 49.9291C75.0872 50.1297 75.4988 50.2299 75.9561 50.2299ZM84.4488 44.5508C84.9809 44.5508 85.4466 44.6511 85.8457 44.8516C86.2531 45.0441 86.5691 45.3409 86.7936 45.742C87.0264 46.143 87.1428 46.6484 87.1428 47.258V50.9278H86.2573V47.3422C86.2573 46.6765 86.0827 46.1751 85.7334 45.8382C85.3925 45.4933 84.9103 45.3209 84.2867 45.3209C83.821 45.3209 83.4136 45.4131 83.0644 45.5976C82.7235 45.7741 82.4574 46.0348 82.2662 46.3797C82.0832 46.7166 81.9918 47.1257 81.9918 47.607V50.9278H81.1063V44.611H81.9544V46.3436L81.8172 46.0187C82.025 45.5615 82.3576 45.2045 82.8149 44.9479C83.2723 44.6832 83.8169 44.5508 84.4488 44.5508ZM91.2935 50.988C90.7531 50.988 90.2417 50.9158 89.7595 50.7714C89.2772 50.619 88.8989 50.4305 88.6245 50.2059L89.0236 49.5321C89.2897 49.7246 89.6306 49.893 90.0463 50.0374C90.4621 50.1738 90.8986 50.242 91.3559 50.242C91.9795 50.242 92.4285 50.1497 92.7029 49.9652C92.9773 49.7727 93.1145 49.5201 93.1145 49.2072C93.1145 48.9746 93.0355 48.7941 92.8775 48.6658C92.7278 48.5294 92.5283 48.4291 92.2788 48.365C92.0294 48.2928 91.7509 48.2326 91.4432 48.1845C91.1356 48.1364 90.8279 48.0802 90.5203 48.016C90.2209 47.9519 89.9465 47.8596 89.6971 47.7393C89.4477 47.611 89.2439 47.4385 89.086 47.2219C88.9363 47.0053 88.8615 46.7166 88.8615 46.3556C88.8615 46.0107 88.9612 45.7019 89.1608 45.4291C89.3603 45.1564 89.6514 44.9438 90.0338 44.7914C90.4246 44.631 90.8986 44.5508 91.4557 44.5508C91.8797 44.5508 92.3038 44.607 92.7278 44.7193C93.1519 44.8235 93.5011 44.9639 93.7755 45.1404L93.3889 45.8262C93.0978 45.6337 92.786 45.4973 92.4534 45.4171C92.1209 45.3289 91.7883 45.2848 91.4557 45.2848C90.8653 45.2848 90.4288 45.385 90.1461 45.5856C89.8717 45.7781 89.7345 46.0267 89.7345 46.3316C89.7345 46.5722 89.8093 46.7607 89.959 46.8971C90.117 47.0334 90.3207 47.1417 90.5701 47.2219C90.8279 47.2941 91.1064 47.3543 91.4058 47.4024C91.7134 47.4505 92.0169 47.5107 92.3163 47.5829C92.6239 47.6471 92.9025 47.7393 93.1519 47.8596C93.4097 47.9719 93.6134 48.1364 93.763 48.3529C93.921 48.5615 94 48.8382 94 49.1832C94 49.5521 93.8919 49.873 93.6757 50.1457C93.4679 50.4104 93.1602 50.619 92.7528 50.7714C92.3537 50.9158 91.8673 50.988 91.2935 50.988Z" fill="#515151"/>
<path d="M18.7904 0V5.56358H20.6236V0H18.7904ZM9.16608 6.02724L10.0827 8.34542L12.3742 7.88176L11.4576 5.09997L9.16608 6.02724ZM27.9565 5.09997L27.0399 7.88176L29.3314 8.34542L30.248 6.02724L27.9565 5.09997ZM10.9993 37.5543H13.2908C13.2416 31.6161 7.59542 27.1846 8.38917 21.3271C9.31429 14.5003 16.8526 13.8041 18.7904 20.3998H21.082C20.6178 15.8404 17.5658 13.567 13.2908 12.9817V12.5181C15.5616 11.8627 17.7315 10.6065 20.1653 10.7623C26.1593 11.146 31.6652 16.9956 31.0734 23.1816C30.5203 28.9637 26.124 32.714 26.1233 38.9452C22.9405 38.9452 13.9485 37.2766 13.2908 41.2633H28.4148C27.8508 32.8538 35.2047 26.8765 32.8599 18.5453C29.3422 6.04695 11.9136 5.37183 7.03442 17.1544C3.60644 25.4325 10.8386 29.925 10.9993 37.5543ZM0.916613 10.1999C0.446167 13.0564 4.23704 16.0285 5.95796 12.9817L0.916613 10.1999ZM38.0392 10.1999L33.4561 12.9817C34.9527 15.6313 37.5749 13.383 39.4141 12.0545V11.5908L38.0392 10.1999ZM25.804 17.6992C24.2732 18.4605 25.32 20.744 26.9009 20.0929C28.4673 19.4479 27.3005 16.955 25.804 17.6992ZM0.458312 21.3271C0.757012 23.1403 1.43708 23.5061 3.20813 23.6453V21.3271H0.458312ZM38.0392 14.974L38.3333 23.9168C39.375 15.182 45 22.045 45 22.045L41.4583 17.0537L39.7917 14.974H38.0392ZM11.4576 22.2544C12.8922 32.9703 26.5219 32.9703 27.9565 22.2544H25.665C24.3203 29.7647 15.0938 29.7647 13.7491 22.2544H11.4576ZM0 32.4543L0.916613 34.3088L5.95796 31.9907L5.04133 29.6725L0 32.4543ZM15.124 43.118V45.4361L19.707 47L24.2901 45.4361V43.118H15.124Z" fill="#D4AA00"/>
</svg>
