<svg width="485" height="59" viewBox="0 0 485 59" fill="none" xmlns="http://www.w3.org/2000/svg">
<g filter="url(#filter0_f_43_197)">
<path d="M25.6941 45.25C23.0941 45.25 20.6775 44.8167 18.4441 43.95C16.2441 43.05 14.3108 41.8 12.6441 40.2C11.0108 38.5667 9.74414 36.6833 8.84414 34.55C7.94414 32.3833 7.49414 30.0333 7.49414 27.5C7.49414 24.9667 7.94414 22.6333 8.84414 20.5C9.74414 18.3333 11.0108 16.45 12.6441 14.85C14.3108 13.2167 16.2441 11.9667 18.4441 11.1C20.6775 10.2 23.0941 9.75 25.6941 9.75C28.2941 9.75 30.6941 10.2 32.8941 11.1C35.1275 11.9667 37.0608 13.2 38.6941 14.8C40.3275 16.4 41.5941 18.2833 42.4941 20.45C43.4275 22.5833 43.8941 24.9333 43.8941 27.5C43.8941 30.0667 43.4275 32.4333 42.4941 34.6C41.5941 36.7333 40.3275 38.6 38.6941 40.2C37.0608 41.8 35.1275 43.05 32.8941 43.95C30.6941 44.8167 28.2941 45.25 25.6941 45.25ZM25.6941 42.9C27.9275 42.9 29.9941 42.5167 31.8941 41.75C33.7941 40.9833 35.4441 39.9 36.8441 38.5C38.2441 37.1 39.3275 35.4667 40.0941 33.6C40.8941 31.7333 41.2941 29.7 41.2941 27.5C41.2941 25.2667 40.8941 23.2333 40.0941 21.4C39.3275 19.5333 38.2441 17.9 36.8441 16.5C35.4441 15.1 33.7941 14.0167 31.8941 13.25C29.9941 12.4833 27.9275 12.1 25.6941 12.1C23.4608 12.1 21.3941 12.4833 19.4941 13.25C17.5941 14.0167 15.9275 15.1 14.4941 16.5C13.0941 17.9 11.9941 19.5333 11.1941 21.4C10.4275 23.2333 10.0441 25.2667 10.0441 27.5C10.0441 29.7 10.4275 31.7333 11.1941 33.6C11.9941 35.4667 13.0941 37.1 14.4941 38.5C15.9275 39.9 17.5941 40.9833 19.4941 41.75C21.3941 42.5167 23.4608 42.9 25.6941 42.9ZM80.4305 45.25C77.8305 45.25 75.4138 44.8167 73.1805 43.95C70.9805 43.05 69.0471 41.8 67.3805 40.2C65.7471 38.5667 64.4805 36.6833 63.5805 34.55C62.6805 32.3833 62.2305 30.0333 62.2305 27.5C62.2305 24.9667 62.6805 22.6333 63.5805 20.5C64.4805 18.3333 65.7471 16.45 67.3805 14.85C69.0471 13.2167 70.9805 11.9667 73.1805 11.1C75.4138 10.2 77.8305 9.75 80.4305 9.75C83.0305 9.75 85.4305 10.2 87.6305 11.1C89.8638 11.9667 91.7971 13.2 93.4305 14.8C95.0638 16.4 96.3305 18.2833 97.2305 20.45C98.1638 22.5833 98.6305 24.9333 98.6305 27.5C98.6305 30.0667 98.1638 32.4333 97.2305 34.6C96.3305 36.7333 95.0638 38.6 93.4305 40.2C91.7971 41.8 89.8638 43.05 87.6305 43.95C85.4305 44.8167 83.0305 45.25 80.4305 45.25ZM91.9305 51.65C90.9305 51.65 89.9471 51.5167 88.9805 51.25C88.0471 50.9833 87.0805 50.5667 86.0805 50C85.1138 49.4667 84.1138 48.75 83.0805 47.85C82.0805 46.9833 80.9971 45.9333 79.8305 44.7L82.7305 44C83.7971 45.2333 84.8471 46.2667 85.8805 47.1C86.9471 47.9333 87.9805 48.5333 88.9805 48.9C89.9805 49.3 90.9638 49.5 91.9305 49.5C94.6638 49.5 96.9638 48.3833 98.8305 46.15L100.18 47.7C98.0471 50.3333 95.2971 51.65 91.9305 51.65ZM80.4305 42.9C82.6638 42.9 84.7305 42.5167 86.6305 41.75C88.5305 40.9833 90.1805 39.9 91.5805 38.5C92.9805 37.1 94.0638 35.4667 94.8305 33.6C95.6305 31.7333 96.0305 29.7 96.0305 27.5C96.0305 25.3 95.6305 23.2667 94.8305 21.4C94.0638 19.5333 92.9805 17.9 91.5805 16.5C90.1805 15.1 88.5305 14.0167 86.6305 13.25C84.7305 12.4833 82.6638 12.1 80.4305 12.1C78.1971 12.1 76.1305 12.4833 74.2305 13.25C72.3305 14.0167 70.6638 15.1 69.2305 16.5C67.8305 17.9 66.7305 19.5333 65.9305 21.4C65.1638 23.2667 64.7805 25.3 64.7805 27.5C64.7805 29.7 65.1638 31.7333 65.9305 33.6C66.7305 35.4667 67.8305 37.1 69.2305 38.5C70.6638 39.9 72.3305 40.9833 74.2305 41.75C76.1305 42.5167 78.1971 42.9 80.4305 42.9ZM117.275 45.2C115.042 45.2 113.108 44.8 111.475 44C109.842 43.1667 108.575 41.9333 107.675 40.3C106.808 38.6333 106.375 36.5833 106.375 34.15V18.9H108.875V33.95C108.875 36.8833 109.625 39.1167 111.125 40.65C112.625 42.1833 114.742 42.95 117.475 42.95C119.442 42.95 121.142 42.5333 122.575 41.7C124.008 40.8667 125.108 39.7 125.875 38.2C126.642 36.6667 127.025 34.8667 127.025 32.8V18.9H129.525V45H127.125V37.75L127.475 38.6C126.708 40.6333 125.425 42.25 123.625 43.45C121.858 44.6167 119.742 45.2 117.275 45.2ZM150.722 45.2C148.089 45.2 145.756 44.6333 143.722 43.5C141.722 42.3667 140.139 40.8 138.972 38.8C137.839 36.8 137.272 34.5167 137.272 31.95C137.272 29.35 137.806 27.0667 138.872 25.1C139.972 23.1 141.472 21.5333 143.372 20.4C145.272 19.2667 147.406 18.7 149.772 18.7C152.139 18.7 154.256 19.25 156.122 20.35C158.022 21.45 159.506 23 160.572 25C161.672 26.9667 162.222 29.25 162.222 31.85C162.222 31.95 162.206 32.0667 162.172 32.2C162.172 32.3 162.172 32.4167 162.172 32.55H139.122V30.6H160.822L159.822 31.55C159.856 29.5167 159.422 27.7 158.522 26.1C157.656 24.4667 156.472 23.2 154.972 22.3C153.472 21.3667 151.739 20.9 149.772 20.9C147.839 20.9 146.106 21.3667 144.572 22.3C143.072 23.2 141.889 24.4667 141.022 26.1C140.156 27.7 139.722 29.5333 139.722 31.6V32.05C139.722 34.1833 140.189 36.0833 141.122 37.75C142.089 39.3833 143.406 40.6667 145.072 41.6C146.739 42.5 148.639 42.95 150.772 42.95C152.439 42.95 153.989 42.65 155.422 42.05C156.889 41.45 158.122 40.5333 159.122 39.3L160.572 40.95C159.439 42.35 158.006 43.4167 156.272 44.15C154.572 44.85 152.722 45.2 150.722 45.2ZM198.448 45.25C195.848 45.25 193.431 44.8167 191.198 43.95C188.998 43.05 187.065 41.8 185.398 40.2C183.765 38.5667 182.498 36.6833 181.598 34.55C180.698 32.3833 180.248 30.0333 180.248 27.5C180.248 24.9667 180.698 22.6333 181.598 20.5C182.498 18.3333 183.765 16.45 185.398 14.85C187.065 13.2167 188.998 11.9667 191.198 11.1C193.431 10.2 195.848 9.75 198.448 9.75C201.048 9.75 203.448 10.2 205.648 11.1C207.881 11.9667 209.815 13.2 211.448 14.8C213.081 16.4 214.348 18.2833 215.248 20.45C216.181 22.5833 216.648 24.9333 216.648 27.5C216.648 30.0667 216.181 32.4333 215.248 34.6C214.348 36.7333 213.081 38.6 211.448 40.2C209.815 41.8 207.881 43.05 205.648 43.95C203.448 44.8167 201.048 45.25 198.448 45.25ZM198.448 42.9C200.681 42.9 202.748 42.5167 204.648 41.75C206.548 40.9833 208.198 39.9 209.598 38.5C210.998 37.1 212.081 35.4667 212.848 33.6C213.648 31.7333 214.048 29.7 214.048 27.5C214.048 25.2667 213.648 23.2333 212.848 21.4C212.081 19.5333 210.998 17.9 209.598 16.5C208.198 15.1 206.548 14.0167 204.648 13.25C202.748 12.4833 200.681 12.1 198.448 12.1C196.215 12.1 194.148 12.4833 192.248 13.25C190.348 14.0167 188.681 15.1 187.248 16.5C185.848 17.9 184.748 19.5333 183.948 21.4C183.181 23.2333 182.798 25.2667 182.798 27.5C182.798 29.7 183.181 31.7333 183.948 33.6C184.748 35.4667 185.848 37.1 187.248 38.5C188.681 39.9 190.348 40.9833 192.248 41.75C194.148 42.5167 196.215 42.9 198.448 42.9ZM225.193 45V14.9C225.193 12.7333 225.809 11 227.043 9.7C228.309 8.36666 230.109 7.7 232.443 7.7C233.409 7.7 234.359 7.85 235.293 8.15C236.226 8.41666 236.993 8.83333 237.593 9.4L236.593 11.3C236.093 10.8 235.493 10.4333 234.793 10.2C234.093 9.96667 233.343 9.85 232.543 9.85C230.943 9.85 229.726 10.3 228.893 11.2C228.059 12.0667 227.643 13.3667 227.643 15.1V19.5L227.693 20.7V45H225.193ZM220.393 21.05V18.9H235.993V21.05H220.393ZM251.259 45.2C248.626 45.2 246.293 44.6333 244.259 43.5C242.259 42.3667 240.676 40.8 239.509 38.8C238.376 36.8 237.809 34.5167 237.809 31.95C237.809 29.35 238.343 27.0667 239.409 25.1C240.509 23.1 242.009 21.5333 243.909 20.4C245.809 19.2667 247.943 18.7 250.309 18.7C252.676 18.7 254.793 19.25 256.659 20.35C258.559 21.45 260.043 23 261.109 25C262.209 26.9667 262.759 29.25 262.759 31.85C262.759 31.95 262.743 32.0667 262.709 32.2C262.709 32.3 262.709 32.4167 262.709 32.55H239.659V30.6H261.359L260.359 31.55C260.393 29.5167 259.959 27.7 259.059 26.1C258.193 24.4667 257.009 23.2 255.509 22.3C254.009 21.3667 252.276 20.9 250.309 20.9C248.376 20.9 246.643 21.3667 245.109 22.3C243.609 23.2 242.426 24.4667 241.559 26.1C240.693 27.7 240.259 29.5333 240.259 31.6V32.05C240.259 34.1833 240.726 36.0833 241.659 37.75C242.626 39.3833 243.943 40.6667 245.609 41.6C247.276 42.5 249.176 42.95 251.309 42.95C252.976 42.95 254.526 42.65 255.959 42.05C257.426 41.45 258.659 40.5333 259.659 39.3L261.109 40.95C259.976 42.35 258.543 43.4167 256.809 44.15C255.109 44.85 253.259 45.2 251.259 45.2ZM270.493 45V18.9H272.893V26.05L272.643 25.25C273.377 23.15 274.61 21.5333 276.343 20.4C278.077 19.2667 280.243 18.7 282.843 18.7V21.15C282.743 21.15 282.643 21.15 282.543 21.15C282.443 21.1167 282.343 21.1 282.243 21.1C279.343 21.1 277.077 22.0167 275.443 23.85C273.81 25.65 272.993 28.1667 272.993 31.4V45H270.493ZM300.088 45.2C297.454 45.2 295.121 44.6333 293.088 43.5C291.088 42.3667 289.504 40.8 288.338 38.8C287.204 36.8 286.638 34.5167 286.638 31.95C286.638 29.35 287.171 27.0667 288.238 25.1C289.338 23.1 290.838 21.5333 292.738 20.4C294.638 19.2667 296.771 18.7 299.138 18.7C301.504 18.7 303.621 19.25 305.488 20.35C307.388 21.45 308.871 23 309.938 25C311.038 26.9667 311.588 29.25 311.588 31.85C311.588 31.95 311.571 32.0667 311.538 32.2C311.538 32.3 311.538 32.4167 311.538 32.55H288.488V30.6H310.188L309.188 31.55C309.221 29.5167 308.788 27.7 307.888 26.1C307.021 24.4667 305.838 23.2 304.338 22.3C302.838 21.3667 301.104 20.9 299.138 20.9C297.204 20.9 295.471 21.3667 293.938 22.3C292.438 23.2 291.254 24.4667 290.388 26.1C289.521 27.7 289.088 29.5333 289.088 31.6V32.05C289.088 34.1833 289.554 36.0833 290.488 37.75C291.454 39.3833 292.771 40.6667 294.438 41.6C296.104 42.5 298.004 42.95 300.138 42.95C301.804 42.95 303.354 42.65 304.788 42.05C306.254 41.45 307.488 40.5333 308.488 39.3L309.938 40.95C308.804 42.35 307.371 43.4167 305.638 44.15C303.938 44.85 302.088 45.2 300.088 45.2ZM329.671 45.2C327.138 45.2 324.871 44.6333 322.871 43.5C320.905 42.3667 319.338 40.8 318.171 38.8C317.038 36.8 316.471 34.5167 316.471 31.95C316.471 29.35 317.038 27.05 318.171 25.05C319.338 23.05 320.905 21.5 322.871 20.4C324.871 19.2667 327.138 18.7 329.671 18.7C331.771 18.7 333.671 19.1 335.371 19.9C337.105 20.7 338.505 21.9 339.571 23.5L337.721 24.85C336.788 23.5167 335.621 22.5333 334.221 21.9C332.821 21.2667 331.305 20.95 329.671 20.95C327.638 20.95 325.805 21.4167 324.171 22.35C322.571 23.25 321.305 24.5333 320.371 26.2C319.471 27.8333 319.021 29.75 319.021 31.95C319.021 34.15 319.471 36.0833 320.371 37.75C321.305 39.3833 322.571 40.6667 324.171 41.6C325.805 42.5 327.638 42.95 329.671 42.95C331.305 42.95 332.821 42.6333 334.221 42C335.621 41.3667 336.788 40.3833 337.721 39.05L339.571 40.4C338.505 42 337.105 43.2 335.371 44C333.671 44.8 331.771 45.2 329.671 45.2ZM357.216 45.2C354.583 45.2 352.25 44.6333 350.216 43.5C348.216 42.3667 346.633 40.8 345.466 38.8C344.333 36.8 343.766 34.5167 343.766 31.95C343.766 29.35 344.3 27.0667 345.366 25.1C346.466 23.1 347.966 21.5333 349.866 20.4C351.766 19.2667 353.9 18.7 356.266 18.7C358.633 18.7 360.75 19.25 362.616 20.35C364.516 21.45 366 23 367.066 25C368.166 26.9667 368.716 29.25 368.716 31.85C368.716 31.95 368.7 32.0667 368.666 32.2C368.666 32.3 368.666 32.4167 368.666 32.55H345.616V30.6H367.316L366.316 31.55C366.35 29.5167 365.916 27.7 365.016 26.1C364.15 24.4667 362.966 23.2 361.466 22.3C359.966 21.3667 358.233 20.9 356.266 20.9C354.333 20.9 352.6 21.3667 351.066 22.3C349.566 23.2 348.383 24.4667 347.516 26.1C346.65 27.7 346.216 29.5333 346.216 31.6V32.05C346.216 34.1833 346.683 36.0833 347.616 37.75C348.583 39.3833 349.9 40.6667 351.566 41.6C353.233 42.5 355.133 42.95 357.266 42.95C358.933 42.95 360.483 42.65 361.916 42.05C363.383 41.45 364.616 40.5333 365.616 39.3L367.066 40.95C365.933 42.35 364.5 43.4167 362.766 44.15C361.066 44.85 359.216 45.2 357.216 45.2ZM408.95 18.7C411.05 18.7 412.867 19.1167 414.4 19.95C415.967 20.75 417.184 21.9833 418.05 23.65C418.917 25.2833 419.35 27.3167 419.35 29.75V45H416.85V29.95C416.85 27.0167 416.134 24.7833 414.7 23.25C413.267 21.7167 411.267 20.95 408.7 20.95C406.734 20.95 405.034 21.3667 403.6 22.2C402.167 23.0333 401.067 24.2 400.3 25.7C399.534 27.2 399.15 29 399.15 31.1V45H396.65V29.95C396.65 27.0167 395.934 24.7833 394.5 23.25C393.067 21.7167 391.067 20.95 388.5 20.95C386.534 20.95 384.834 21.3667 383.4 22.2C381.967 23.0333 380.867 24.2 380.1 25.7C379.334 27.2 378.95 29 378.95 31.1V45H376.45V18.9H378.85V26.1L378.5 25.3C379.267 23.2667 380.55 21.6667 382.35 20.5C384.15 19.3 386.317 18.7 388.85 18.7C391.45 18.7 393.634 19.3667 395.4 20.7C397.2 22 398.334 23.95 398.8 26.55L397.95 26.2C398.65 23.9667 399.967 22.1667 401.9 20.8C403.834 19.4 406.184 18.7 408.95 18.7ZM439.873 45.2C437.373 45.2 435.14 44.6333 433.173 43.5C431.24 42.3667 429.69 40.8 428.523 38.8C427.39 36.8 426.823 34.5167 426.823 31.95C426.823 29.35 427.39 27.0667 428.523 25.1C429.69 23.1 431.24 21.5333 433.173 20.4C435.14 19.2667 437.373 18.7 439.873 18.7C442.373 18.7 444.606 19.2667 446.573 20.4C448.54 21.5333 450.09 23.1 451.223 25.1C452.356 27.0667 452.923 29.35 452.923 31.95C452.923 34.5167 452.356 36.8 451.223 38.8C450.09 40.8 448.54 42.3667 446.573 43.5C444.606 44.6333 442.373 45.2 439.873 45.2ZM439.873 42.95C441.873 42.95 443.673 42.5 445.273 41.6C446.873 40.6667 448.123 39.3667 449.023 37.7C449.923 36.0333 450.373 34.1167 450.373 31.95C450.373 29.75 449.923 27.8333 449.023 26.2C448.123 24.5333 446.873 23.25 445.273 22.35C443.673 21.4167 441.873 20.95 439.873 20.95C437.873 20.95 436.073 21.4167 434.473 22.35C432.906 23.25 431.656 24.5333 430.723 26.2C429.823 27.8333 429.373 29.75 429.373 31.95C429.373 34.1167 429.823 36.0333 430.723 37.7C431.656 39.3667 432.906 40.6667 434.473 41.6C436.073 42.5 437.873 42.95 439.873 42.95ZM467.279 45.2C465.112 45.2 463.079 44.8833 461.179 44.25C459.312 43.6167 457.862 42.8167 456.829 41.85L457.979 39.85C458.979 40.7167 460.312 41.4667 461.979 42.1C463.646 42.7 465.446 43 467.379 43C470.112 43 472.079 42.55 473.279 41.65C474.479 40.75 475.079 39.5667 475.079 38.1C475.079 37.0333 474.762 36.2 474.129 35.6C473.529 34.9667 472.712 34.4833 471.679 34.15C470.646 33.8167 469.512 33.55 468.279 33.35C467.046 33.1167 465.812 32.8667 464.579 32.6C463.346 32.3333 462.212 31.95 461.179 31.45C460.146 30.95 459.312 30.2667 458.679 29.4C458.079 28.5 457.779 27.3167 457.779 25.85C457.779 24.5167 458.146 23.3167 458.879 22.25C459.612 21.1833 460.712 20.3333 462.179 19.7C463.646 19.0333 465.479 18.7 467.679 18.7C469.312 18.7 470.946 18.9333 472.579 19.4C474.246 19.8667 475.596 20.4833 476.629 21.25L475.479 23.25C474.379 22.4167 473.146 21.8167 471.779 21.45C470.412 21.0833 469.029 20.9 467.629 20.9C465.096 20.9 463.229 21.3667 462.029 22.3C460.862 23.2333 460.279 24.4 460.279 25.8C460.279 26.9 460.579 27.7833 461.179 28.45C461.812 29.0833 462.646 29.5833 463.679 29.95C464.712 30.2833 465.846 30.5667 467.079 30.8C468.312 31 469.546 31.2333 470.779 31.5C472.012 31.7667 473.146 32.15 474.179 32.65C475.212 33.1167 476.029 33.7833 476.629 34.65C477.262 35.4833 477.579 36.6167 477.579 38.05C477.579 39.4833 477.179 40.7333 476.379 41.8C475.612 42.8667 474.462 43.7 472.929 44.3C471.396 44.9 469.512 45.2 467.279 45.2Z" fill="white"/>
</g>
<defs>
<filter id="filter0_f_43_197" x="0.494141" y="0.699951" width="484.085" height="57.9501" filterUnits="userSpaceOnUse" color-interpolation-filters="sRGB">
<feFlood flood-opacity="0" result="BackgroundImageFix"/>
<feBlend mode="normal" in="SourceGraphic" in2="BackgroundImageFix" result="shape"/>
<feGaussianBlur stdDeviation="3.5" result="effect1_foregroundBlur_43_197"/>
</filter>
</defs>
</svg>
